<svg xmlns="http://www.w3.org/2000/svg" viewBox="0 0 433 433"><defs><style>.cls-1{fill:#ff3636;}.cls-2{fill:#e2e2e2;}.cls-3{fill:#232c56;}.cls-4{font-size:165px;fill:#fff;font-family:Impact, Impact;}</style></defs><title>Asset 4</title><g id="Layer_2" data-name="Layer 2"><g id="Layer_2-2" data-name="Layer 2"><circle class="cls-1" cx="216.5" cy="216.5" r="216.5"/></g><g id="Layer_3" data-name="Layer 3"><circle class="cls-2" cx="217.5" cy="216.5" r="184.5"/></g><g id="innerbadge"><polygon class="cls-3" points="217 32 377.76 125.02 320.52 369.58 217 401 217 32"/><polygon class="cls-3" points="217 32 56.24 125.02 113.48 369.58 217 401 217 32"/><path class="cls-3" d="M215.9,35c-4.08,34.75,1.32,69.9,2.47,104.68.57,17.48.71,35,.71,52.47,0,17,.51,34.17-.23,51.17-.76,17.49-11.14,33.75-8.34,51.42.22,1.45,2.63,1.42,2.89,0,13.12-71.73,6.67-144.74,8-217.16.17-10,.5-20.06,1.06-30.07.27-4.89.81-11.86-5.06-13.54a1.5,1.5,0,0,0-.8,2.89c3.81,1.09,3.06,6.81,2.91,9.68-.24,4.52-.47,9-.64,13.57q-.47,12.62-.58,25.24c-.18,16.85,0,33.71.23,50.56.43,33.3,1,66.64-1.09,99.9A495.77,495.77,0,0,1,210.51,294h2.89c-2.54-16.06,6.85-31,8.21-46.81,1.42-16.5.46-33.47.47-50,0-34.63-1-69.08-3.3-103.63-1.31-19.49-2.16-39,.12-58.48.23-1.91-2.78-1.89-3,0Z"/></g><g id="Layer_5" data-name="Layer 5"><text class="cls-4" transform="translate(132 261.4)">D</text><text class="cls-4" transform="translate(209.57 306.34)">B</text></g></g></svg>